{"title":"Goynar Baksho (2013) DVDrip 720p ~SaNRiM~","uid":8602349,"size":2331085539,"categoryP":"video","categoryS":"hd___movies","magnet":"?xt=urn:btih:4eb12406893f6db96cf9b6037b829e24f10bd7a7&amp;dn=Goynar+Baksho+%282013%29+DVDrip+720p+%7ESaNRiM%7E&amp;tr=udp%3A%2F%2Ftracker.openbittorrent.com%3A80&amp;tr=udp%3A%2F%2Fopen.demonii.com%3A1337&amp;tr=udp%3A%2F%2Ftracker.coppersurfer.tk%3A6969&amp;tr=udp%3A%2F%2Fexodus.desync.com%3A6969","seeders":1,"leechers":0,"uploader":"SaNRiM","files":-1,"time":1371917697,"description":"                        &lt;a href=&quot; http://www.imdb.com/title/tt2819358/&quot; rel=&quot;nofollow&quot; target=&quot;_NEW&quot;&gt; http://www.imdb.com/title/tt2819358/&lt;/a&gt;\n\nPlot:\n\nShirshendu Mukhopadhyay's famous tale of 3 generations of women &amp; their changing position in society,seen in relation to a box of jewels, handed down from one generation to the next.\n\n\nInfo:\n\n\nGeneral\n\nUnique ID : 245781490006675619125084237633602639399 (0xB8E7CB0B177DC9E580C65B05EF4ED627)\nComplete name : Goynar Baksho (2013) DVDrip 720p ~SaNRiM~.mkv\nFormat : Matroska\nFormat version : Version 4 / Version 2\nFile size : 2.17 GiB\nDuration : 2h 15mn\nOverall bit rate : 2 291 Kbps\nEncoded date : UTC 2013-06-22 09:11:14\nWriting application : mkvmerge v6.2.0 ('Promised Land') built on Apr 28 2013 12:22:01\nWriting library : libebml v1.3.0 + libmatroska v1.4.0\n\n\nVideo\n\nID : 1\nFormat : AVC\nFormat/Info : Advanced Video Codec\nFormat profile : &lt;a class=&quot;__cf_email__&quot; href=&quot;/cdn-cgi/l/email-protection&quot; data-cfemail=&quot;c088a9a7a8808cf3eef1&quot;&gt;[email&amp;#160;protected]&lt;/a&gt;&lt;script cf-hash='f9e31' type=&quot;text/javascript&quot;&gt;\n/* &lt;![CDATA[ */!function(){try{var t=&quot;currentScript&quot;in document?document.currentScript:function(){for(var t=document.getElementsByTagName(&quot;script&quot;),e=t.length;e--;)if(t[e].getAttribute(&quot;cf-hash&quot;))return t[e]}();if(t&amp;&amp;t.previousSibling){var e,r,n,i,c=t.previousSibling,a=c.getAttribute(&quot;data-cfemail&quot;);if(a){for(e=&quot;&quot;,r=parseInt(a.substr(0,2),16),n=2;a.length-n;n+=2)i=parseInt(a.substr(n,2),16)^r,e+=String.fromCharCode(i);e=document.createTextNode(e),c.parentNode.replaceChild(e,c)}}}catch(u){}}();/* ]]&gt; */&lt;/script&gt;\nFormat settings, CABAC : Yes\nFormat settings, ReFrames : 4 frames\nCodec ID : V_MPEG4/ISO/AVC\nDuration : 2h 15mn\nBit rate : 2 100 Kbps\nWidth : 1 280 pixels\nHeight : 544 pixels\nDisplay aspect ratio : 2.35:1\nFrame rate mode : Constant\nFrame rate : 25.000 fps\nColor space : YUV\nChroma subsampling : 4:2:0\nBit depth : 8 bits\nScan type : Progressive\nBits/(Pixel*Frame) : 0.121\nStream size : 1.95 GiB (90%)\nTitle : ~SaNRiM~\nWriting library : x264 core 133 r2334 a3ac64b\nEncoding settings : cabac=1 / ref=5 / deblock=1:-1:-1 / analyse=0x3:0x113 / me=umh / subme=8 / psy=1 / psy_rd=1.00:0.06 / mixed_ref=1 / me_range=16 / chroma_me=1 / trellis=1 / 8x8dct=1 / cqm=0 / deadzone=21,11 / fast_pskip=1 / chroma_qp_offset=-3 / threads=12 / lookahead_threads=2 / sliced_threads=0 / nr=0 / decimate=1 / interlaced=0 / bluray_compat=0 / constrained_intra=0 / bframes=3 / b_pyramid=1 / b_adapt=2 / b_bias=0 / direct=3 / weightb=1 / open_gop=0 / weightp=2 / keyint=250 / keyint_min=25 / scenecut=40 / intra_refresh=0 / rc_lookahead=50 / rc=2pass / mbtree=1 / bitrate=2100 / ratetol=1.0 / qcomp=0.60 / qpmin=10 / qpmax=51 / qpstep=4 / cplxblur=20.0 / qblur=0.5 / vbv_maxrate=14000 / vbv_bufsize=14500 / nal_hrd=none / ip_ratio=1.40 / aq=1:1.00\nLanguage : Bengali\nDefault : Yes\nForced : No\n\n\nAudio\n\nID : 2\nFormat : AC-3\nFormat/Info : Audio Coding 3\nMode extension : CM (complete main)\nFormat settings, Endianness : Big\nCodec ID : A_AC3\nDuration : 2h 15mn\nBit rate mode : Constant\nBit rate : 192 Kbps\nChannel(s) : 2 channels\nChannel positions : Front: L R\nSampling rate : 48.0 KHz\nBit depth : 16 bits\nCompression mode : Lossy\nStream size : 186 MiB (8%)\nTitle : ~SaNRiM~\nLanguage : Bengali\nDefault : Yes\nForced : No\n\n\nScreen shots:\n &lt;a href=&quot;\nhttp://i.cubeupload.com/bJgFUq.png&quot; rel=&quot;nofollow&quot; target=&quot;_NEW&quot;&gt;\nhttp://i.cubeupload.com/bJgFUq.png&lt;/a&gt; &lt;a href=&quot;\nhttp://i.cubeupload.com/NHds5z.png&quot; rel=&quot;nofollow&quot; target=&quot;_NEW&quot;&gt;\nhttp://i.cubeupload.com/NHds5z.png&lt;/a&gt; &lt;a href=&quot;\nhttp://i.cubeupload.com/HxlHRP.png&quot; rel=&quot;nofollow&quot; target=&quot;_NEW&quot;&gt;\nhttp://i.cubeupload.com/HxlHRP.png&lt;/a&gt; &lt;a href=&quot;\nhttp://i.cubeupload.com/HY3Ujb.png&quot; rel=&quot;nofollow&quot; target=&quot;_NEW&quot;&gt;\nhttp://i.cubeupload.com/HY3Ujb.png&lt;/a&gt; &lt;a href=&quot;\nhttp://i.cubeupload.com/n8ObIx.png&quot; rel=&quot;nofollow&quot; target=&quot;_NEW&quot;&gt;\nhttp://i.cubeupload.com/n8ObIx.png&lt;/a&gt; &lt;a href=&quot;\nhttp://i.cubeupload.com/8Ih41h.png&quot; rel=&quot;nofollow&quot; target=&quot;_NEW&quot;&gt;\nhttp://i.cubeupload.com/8Ih41h.png&lt;/a&gt; &lt;a href=&quot;\nhttp://i.cubeupload.com/IDQ7zP.png&quot; rel=&quot;nofollow&quot; target=&quot;_NEW&quot;&gt;\nhttp://i.cubeupload.com/IDQ7zP.png&lt;/a&gt; &lt;a href=&quot;\nhttp://i.cubeupload.com/oeWNWX.png&quot; rel=&quot;nofollow&quot; target=&quot;_NEW&quot;&gt;\nhttp://i.cubeupload.com/oeWNWX.png&lt;/a&gt; &lt;a href=&quot;\nhttp://i.cubeupload.com/oeWNWX.png&quot; rel=&quot;nofollow&quot; target=&quot;_NEW&quot;&gt;\nhttp://i.cubeupload.com/oeWNWX.png&lt;/a&gt; &lt;a href=&quot;\nhttp://i.cubeupload.com/CZfO3u.png&quot; rel=&quot;nofollow&quot; target=&quot;_NEW&quot;&gt;\nhttp://i.cubeupload.com/CZfO3u.png&lt;/a&gt; &lt;a href=&quot;\nhttp://i.cubeupload.com/ChgNsU.png&quot; rel=&quot;nofollow&quot; target=&quot;_NEW&quot;&gt;\nhttp://i.cubeupload.com/ChgNsU.png&lt;/a&gt; &lt;a href=&quot;\nhttp://i.cubeupload.com/7m5nYH.png&quot; rel=&quot;nofollow&quot; target=&quot;_NEW&quot;&gt;\nhttp://i.cubeupload.com/7m5nYH.png&lt;/a&gt; &lt;a href=&quot;\nhttp://i.cubeupload.com/3aRmnJ.png&quot; rel=&quot;nofollow&quot; target=&quot;_NEW&quot;&gt;\nhttp://i.cubeupload.com/3aRmnJ.png&lt;/a&gt; &lt;a href=&quot;\nhttp://i.cubeupload.com/nSZ5l4.png&quot; rel=&quot;nofollow&quot; target=&quot;_NEW&quot;&gt;\nhttp://i.cubeupload.com/nSZ5l4.png&lt;/a&gt; &lt;a href=&quot;\nhttp://i.cubeupload.com/3X26Sk.png&quot; rel=&quot;nofollow&quot; target=&quot;_NEW&quot;&gt;\nhttp://i.cubeupload.com/3X26Sk.png&lt;/a&gt; &lt;a href=&quot;\nhttp://i.cubeupload.com/cbWkyY.png&quot; rel=&quot;nofollow&quot; target=&quot;_NEW&quot;&gt;\nhttp://i.cubeupload.com/cbWkyY.png&lt;/a&gt; &lt;a href=&quot;\nhttp://i.cubeupload.com/J5HV9H.png&quot; rel=&quot;nofollow&quot; target=&quot;_NEW&quot;&gt;\nhttp://i.cubeupload.com/J5HV9H.png&lt;/a&gt; &lt;a href=&quot;\nhttp://i.cubeupload.com/dMQYqq.png&quot; rel=&quot;nofollow&quot; target=&quot;_NEW&quot;&gt;\nhttp://i.cubeupload.com/dMQYqq.png&lt;/a&gt; &lt;a href=&quot;\nhttp://i.cubeupload.com/Dhta1q.png&quot; rel=&quot;nofollow&quot; target=&quot;_NEW&quot;&gt;\nhttp://i.cubeupload.com/Dhta1q.png&lt;/a&gt; &lt;a href=&quot;\nhttp://i.cubeupload.com/7CqIWr.png&quot; rel=&quot;nofollow&quot; target=&quot;_NEW&quot;&gt;\nhttp://i.cubeupload.com/7CqIWr.png&lt;/a&gt; &lt;a href=&quot;\nhttp://i.cubeupload.com/C1dfnc.png&quot; rel=&quot;nofollow&quot; target=&quot;_NEW&quot;&gt;\nhttp://i.cubeupload.com/C1dfnc.png&lt;/a&gt; &lt;a href=&quot;\nhttp://i.cubeupload.com/YJwg8Z.png&quot; rel=&quot;nofollow&quot; target=&quot;_NEW&quot;&gt;\nhttp://i.cubeupload.com/YJwg8Z.png&lt;/a&gt; &lt;a href=&quot;\nhttp://i.cubeupload.com/RaZrCl.png&quot; rel=&quot;nofollow&quot; target=&quot;_NEW&quot;&gt;\nhttp://i.cubeupload.com/RaZrCl.png&lt;/a&gt; &lt;a href=&quot;\nhttp://i.cubeupload.com/tejTGc.png&quot; rel=&quot;nofollow&quot; target=&quot;_NEW&quot;&gt;\nhttp://i.cubeupload.com/tejTGc.png&lt;/a&gt; &lt;a href=&quot;\nhttp://i.cubeupload.com/OX5ZLU.png&quot; rel=&quot;nofollow&quot; target=&quot;_NEW&quot;&gt;\nhttp://i.cubeupload.com/OX5ZLU.png&lt;/a&gt;\n\n\n                         If you like my work please comment\n                              Any request? Just PM me\n                          Please seed long after download\n                            Thank you &amp; enjoy the best\n                                     ~SaNRiM~","torrent":{"xt":"urn:btih:4eb12406893f6db96cf9b6037b829e24f10bd7a7","amp;dn":"Goynar+Baksho+%282013%29+DVDrip+720p+%7ESaNRiM%7E","amp;tr":["udp%3A%2F%2Ftracker.openbittorrent.com%3A80","udp%3A%2F%2Fopen.demonii.com%3A1337","udp%3A%2F%2Ftracker.coppersurfer.tk%3A6969","udp%3A%2F%2Fexodus.desync.com%3A6969"],"infoHash":"4eb12406893f6db96cf9b6037b829e24f10bd7a7","infoHashBuffer":{"type":"Buffer","data":[78,177,36,6,137,63,109,185,108,249,182,3,123,130,158,36,241,11,215,167]},"announce":[],"urlList":[]}}